<?xml version="1.0" encoding="UTF-8"?>
<svg id="Layer_1" data-name="Layer 1" xmlns="http://www.w3.org/2000/svg" viewBox="0 0 24 24">
  <defs>
    <style>
      .cls-1 {
        fill: red;
      }

      .cls-2 {
        fill: #fff;
        font-family: Poppins-Bold, Poppins;
        font-size: 13.46px;
        font-weight: 700;
      }
    </style>
  </defs>
  <path class="cls-1" d="M11.65,20.91h0s-.02-.01-.02-.01c-.13-.07-.26-.14-.38-.22-1.52-.9-2.94-1.97-4.24-3.17-2.3-2.15-4.74-5.33-4.74-9.26,0-2.93,2.46-5.25,5.44-5.25,1.67,0,3.26.75,4.31,2.05,1.05-1.31,2.64-2.06,4.31-2.05,2.97,0,5.44,2.32,5.44,5.25,0,3.93-2.44,7.11-4.74,9.26-1.3,1.2-2.72,2.27-4.24,3.17-.13.07-.25.15-.38.22h-.02s0,.02,0,.02h0c-.22.12-.48.12-.7,0h0s0,0,0,0Z"/>
  <text class="cls-2" transform="translate(7.77 16.79)"><tspan x="0" y="0">+</tspan></text>
</svg>