<?xml version="1.0" encoding="utf-8"?>

<svg preserveAspectRatio="xMidYMid slice" version="1.1" id="Layer_1" xmlns="http://www.w3.org/2000/svg" xmlns:xlink="http://www.w3.org/1999/xlink" x="0px" y="0px"
	 viewBox="0 0 1920 1080" style="enable-background:new 0 0 1920 1080;" xml:space="preserve">
<style type="text/css">
	.svg_66fe3acf504dc5476bdb23b6 .st0 {fill:#00858E;}
	.svg_66fe3acf504dc5476bdb23b6 .st1 {opacity:0.3;fill:#FFFFFF;enable-background:new    ;}
	.svg_66fe3acf504dc5476bdb23b6 .st2 {fill:none;stroke:#FFFFFF;stroke-width:0.5;}
	.svg_66fe3acf504dc5476bdb23b6 .st3 {fill:none;stroke:#8C8C8C;stroke-width:0.5;}
	.svg_66fe3acf504dc5476bdb23b6 .st4 {fill:#FFFFFF;stroke:#8C8C8C;stroke-width:0.5;}
</style>
<g id="66fe3acf504dc5476bdb23b70" class="svg_66fe3acf504dc5476bdb23b6">
	<path class="st0" d="M641,612c-17.8,1.6-8.9,17.6-2.2,25.5c3.1-0.2,18,25.7,25,38.7l11,32.9c4.6,14.6,14,45,15.5,49.6
		c1.5,4.6,12.1,8.6,17.2,10c4.5-0.8,15.3-2.8,22.6-4.4c7.3-1.7,8.7-13.1,8.5-18.6l-7-16.6l-15.6-36c-1.9-6-4.9-19.9-1.8-27.2
		c3-7.2,2.2-18,1.4-22.5l-6.3-7.4c-4.3-3.9-14.9-13.1-22.7-18.4C677,611.1,663.3,610,641,612z"/>
	<circle class="st1" cx="722.8" cy="751.2" r="11"/>
	<circle class="st0" cx="722.8" cy="751.2" r="4.6"/>
	<circle class="st2" cx="722.8" cy="751.2" r="5.5"/>
	<path class="st4" d="M789.5,766.5h75c17.1,0,31,13.9,31,31l0,0c0,17.1-13.9,31-31,31h-75c-17.1,0-31-13.9-31-31l0,0
		C758.5,780.4,772.4,766.5,789.5,766.5z"/>
	<path class="st0" d="M832.9,789.9c0.1,0,0.2,0,0.3,0c0.6,0,1.1,0.1,1.6,0.3c0.1,0.7,0.1,0.7,0,1c-1.1,0-2.2,0-3.4,0
		c0,0.1,0,0.2,0,0.2c-0.3,0-0.6,0-1,0c0,0.1,0,0.2,0,0.2c-0.2,0-0.4,0.1-0.6,0.1c0,0.1,0,0.2,0,0.2c-0.1,0-0.2,0-0.2,0
		c0,0.1,0,0.2,0,0.2c-0.2,0.2-0.2,0.2-0.4,0.4c-0.1,0-0.2,0-0.2,0c-0.1,0.5-0.2,1-0.2,1.5c-0.1,0-0.2,0-0.2,0c0,0.4,0,0.7,0,1.1
		c0.1,0,0.2,0,0.2,0c0.1,0.5,0.1,0.5,0.2,1.1c0.1,0,0.2,0,0.2,0c0.1,0.1,0.1,0.1,0.1,0.2c0.1,0.3,0.1,0.3,0.4,0.4c0,0.1,0,0.2,0,0.2
		c0.1,0,0.2,0,0.4,0c0,0.1,0,0.2,0,0.2c0.1,0,0.2,0.1,0.4,0.1c0,0.1,0,0.2,0,0.2c0.2,0,0.3,0,0.5,0c0,0.1,0,0.2,0,0.2
		c0.2,0,0.4,0,0.6,0c0,0.1,0,0.2,0,0.4c0.2,0,0.4,0.1,0.6,0.1c0.2,0,0.4,0.1,0.6,0.1c0,0.1,0,0.2,0,0.2c0.2,0,0.4,0.1,0.6,0.1
		c0,0.1,0,0.2,0,0.2c0.2,0,0.4,0,0.6,0c0,0.1,0,0.2,0,0.2c0.2,0,0.4,0,0.6,0c0,0.1,0.1,0.2,0.1,0.2c0.2,0.1,0.2,0.1,0.5,0.1
		c0,0.1,0,0.2,0,0.2c0.2,0,0.4,0,0.6,0c0,0.1,0.1,0.2,0.1,0.2c0.3,0.1,0.6,0.2,0.8,0.4c0,0.1,0,0.2,0,0.2c0.2,0,0.3,0,0.5,0
		c0,0.1,0.1,0.2,0.1,0.2c0.1,0,0.2,0.1,0.4,0.1c0,0.1,0,0.2,0,0.2c0.1,0,0.2,0,0.2,0c0,0.1,0.1,0.2,0.1,0.2c0.1,0,0.2,0.1,0.4,0.1
		c0,0.1,0,0.2,0,0.2c0.1,0,0.2,0,0.4,0c0,0.1,0,0.2,0,0.2c0.1,0,0.2,0.1,0.2,0.1c0.2,0.2,0.2,0.2,0.3,0.5c0,0.1,0,0.2,0,0.3
		c0.1,0,0.2,0,0.4,0c0,0.2,0,0.3,0,0.5c0.1,0,0.2,0,0.4,0c0,0.3,0,0.6,0,1c0.1,0,0.2,0,0.2,0c0,1.1,0,2.2,0,3.4c-0.1,0-0.2,0-0.2,0
		c0,0.2,0,0.5,0,0.7c-0.1,0-0.2,0-0.4,0c0,0.2-0.1,0.4-0.1,0.6c-0.1,0-0.2,0-0.2,0c0,0.2-0.1,0.3-0.1,0.5c-0.1,0-0.2,0-0.2,0
		c0,0.1-0.1,0.2-0.1,0.4c-0.1,0-0.2,0-0.2,0c0,0.1,0,0.2,0,0.2c-0.1,0-0.2,0-0.4,0c0,0.1-0.1,0.2-0.1,0.4c-0.1,0-0.2,0-0.2,0
		c0,0.1,0,0.2,0,0.2c-0.1,0.1-0.2,0.1-0.4,0.2c-0.4,0.2-0.4,0.2-0.5,0.4c-0.2,0-0.3,0-0.5,0c0,0.1,0,0.2,0,0.2c-0.2,0-0.3,0-0.5,0
		c0,0.1-0.1,0.2-0.1,0.4c-0.3,0.1-0.3,0.1-0.7,0.2c-0.5,0.1-0.7,0.2-1.1,0.4c-0.3,0-0.3,0-0.7,0c-0.1,0-0.3,0-0.4,0
		c-0.2,0-0.2,0-0.5,0c-0.2,0-0.2,0-0.5,0c-1.2,0-1.2,0-1.7-0.1c0-0.1,0-0.2,0-0.2c-0.1,0-0.2,0-0.4,0c-0.5,0-0.8-0.2-1.3-0.4
		c0-0.1,0-0.2,0-0.2c-0.2,0-0.4,0-0.6,0c0-0.1,0-0.2,0-0.2c-0.2,0-0.3,0-0.5,0c-0.2-0.2-0.2-0.2-0.4-0.4c0-0.1,0-0.2,0-0.2
		c-0.1,0-0.2,0-0.4,0c0-0.1,0-0.2,0-0.2c-0.2,0-0.3-0.1-0.5-0.1c0-0.1,0-0.2,0-0.2c-0.1,0-0.2,0-0.2,0c0-0.1,0-0.2,0-0.2
		c-0.1,0-0.2,0-0.4,0c-0.2-0.2-0.2-0.2-0.3-0.4c-0.1-0.1-0.1-0.2-0.2-0.2c-0.1-0.2-0.1-0.2-0.1-0.6c-0.1,0-0.2,0-0.2,0
		c0-0.1,0-0.2,0-0.2c-0.1,0-0.2,0-0.4,0c-0.5-0.9-0.5-0.9-0.6-1.5c-0.1,0-0.2,0-0.2,0c0-0.1,0-0.2,0-0.2c0-0.1,0-0.2-0.1-0.3
		c-0.1,0-0.2-0.1-0.2-0.1c0-0.2,0-0.4,0-0.6c-0.1,0-0.2,0-0.2,0c0-0.3,0-0.6,0-0.9c-0.2-0.1-0.2-0.1-0.4-0.1c0-0.2,0-0.5,0-0.7
		c-0.1,0-0.2,0-0.2,0c0-0.2,0-0.4,0-0.6c-0.1,0-0.2,0-0.2,0c0-0.1,0-0.2,0-0.4c0-0.1,0-0.2-0.1-0.4c-0.1,0-0.2-0.1-0.2-0.1
		c0-0.2,0-0.4,0-0.6c-0.1,0-0.2,0-0.2,0c0-0.3,0-0.6,0-0.9c-0.2-0.1-0.2-0.1-0.4-0.1c0-0.2,0-0.5,0-0.7c-0.1,0-0.2,0-0.2,0
		c0-0.2,0-0.2-0.1-0.3c-0.1-0.4-0.1-0.4-0.3-0.9c-0.2-0.4-0.2-0.6-0.2-1c-0.1,0-0.2,0-0.2,0c0-0.3,0-0.6,0-0.9c-0.1,0-0.2,0-0.4,0
		c-0.2-0.5-0.3-0.9-0.2-1.5c-0.2-0.1-0.2-0.1-0.4-0.1c0-0.2,0-0.4,0-0.6c-0.1,0-0.2,0-0.2,0c0-0.1-0.1-0.2-0.1-0.4
		c-0.1-0.4-0.1-0.4-0.2-0.6c0,0.2,0,0.2,0,0.4c-0.1,0.4-0.1,0.4-0.3,0.7c0,0.1,0,0.2,0,0.3c0,0.5-0.2,0.9-0.4,1.3
		c-0.1,0-0.2,0-0.2,0c0,0.3,0,0.6,0,0.9c-0.1,0-0.2,0-0.2,0c0,0.3,0,0.6,0,0.9c-0.1,0-0.2,0-0.4,0c0,0.3,0,0.6,0,0.9
		c-0.1,0-0.2,0-0.2,0c0,0.3,0,0.6,0,0.9c-0.1,0-0.2,0-0.2,0c0,0.1,0,0.2,0,0.3c0,0.4,0,0.4-0.1,0.6c-0.1,0-0.2,0-0.2,0
		c0,0.3,0,0.6,0,0.9c-0.1,0-0.2,0-0.2,0c0,0.2,0,0.5,0,0.7c-0.1,0-0.2,0.1-0.4,0.1c0,0.3,0,0.6,0,0.9c-0.1,0-0.2,0-0.2,0
		c0,0.1,0,0.2,0,0.4c0,0.5-0.2,1-0.4,1.5c-0.1,0-0.2,0-0.2,0c0,0.1,0,0.2,0,0.3c0,0.5-0.2,0.9-0.4,1.4c-0.1,0-0.2,0-0.2,0
		c0,0.3,0,0.6,0,0.9c-0.1,0-0.2,0-0.2,0c0,0.3,0,0.6,0,0.9c-0.1,0-0.2,0-0.2,0c0,0.1,0,0.2-0.1,0.4c-0.1,0.4-0.1,0.4-0.2,0.5
		c0,0.1,0,0.3-0.1,0.4c-0.1,0.4-0.1,0.4-0.2,0.5c0,0.2,0,0.3-0.1,0.5c0,0.2,0,0.2-0.1,0.5c-0.1,0-0.2,0.1-0.4,0.1
		c0,0.1-0.1,0.2-0.1,0.4c-0.2,0-0.5,0-0.7,0c-0.1-0.1-0.1-0.1-0.1-0.4c0-0.1,0-0.2,0-0.4c0-0.1,0-0.2,0-0.4c0-0.3,0-0.3,0.1-0.4
		c0-0.1,0-0.3,0.1-0.4c0.1-0.4,0.1-0.4,0.3-0.7c0.1-0.3,0.1-0.3,0.1-0.6c0.1,0,0.2,0,0.2,0c0-0.1,0-0.2,0-0.3c0-0.4,0-0.4,0.3-0.6
		c0.1-0.2,0.1-0.4,0.2-0.7c0.2-0.6,0.3-1.3,0.6-1.9c0.1,0,0.2,0,0.2,0c0-0.3,0-0.6,0-0.9c0.1,0,0.2,0,0.2,0c0-0.2,0-0.5,0-0.7
		c0.2-0.1,0.2-0.1,0.4-0.1c0-0.3,0-0.6,0-0.9c0.1,0,0.2,0,0.2,0c0-0.1,0-0.2,0-0.3c0-0.6,0.2-1,0.4-1.5c0.1,0,0.2,0,0.2,0
		c0-0.3,0-0.6,0-0.9c0.1,0,0.2,0,0.2,0c0-0.2,0-0.5,0-0.7c0.2-0.1,0.2-0.1,0.4-0.1c0-0.3,0-0.6,0-0.9c0.1,0,0.2,0,0.2,0
		c0-0.1,0-0.2,0-0.4c0-0.5,0.2-1,0.4-1.5c0.1,0,0.2,0,0.2,0c0-0.1,0-0.1,0-0.3c0-0.5,0.2-0.9,0.4-1.4c0.1,0,0.2,0,0.2,0
		c0-0.3,0-0.6,0-0.9c0.1,0,0.2,0,0.2,0c0-0.2,0-0.2,0-0.3c0-0.5,0.2-0.9,0.4-1.4c0.1,0,0.2,0,0.2,0c0-0.1,0-0.3,0-0.4
		c0-0.5,0.1-0.8,0.3-1.2c0.1,0,0.2-0.1,0.2-0.1c0.1-0.4,0.1-0.4,0.1-0.7c0.1,0,0.2,0,0.4,0c0-0.1,0-0.2,0-0.4
		c0.3,0.1,0.3,0.1,0.6,0.1c0,0.2,0,0.3,0,0.5c0.1,0,0.2,0,0.2,0c0,0.2,0,0.5,0,0.7c0.1,0,0.2,0.1,0.4,0.1c0,0.2,0,0.5,0,0.7
		c0.1,0,0.2,0,0.2,0c0,0.2,0,0.4,0,0.6c0.2,0.1,0.2,0.1,0.4,0.1c0.1,0.3,0.1,0.3,0.2,0.7c0.1,0.5,0.3,1,0.5,1.5
		c0.1,0.3,0.1,0.5,0.1,0.9c0.1,0,0.2,0,0.2,0c0,0.2,0,0.4,0,0.6c0.1,0,0.2,0,0.2,0c0,0.1,0.1,0.2,0.1,0.3c0,0.1,0.1,0.2,0.1,0.3
		c0.1,0.2,0.1,0.2,0.1,0.4c0.1,0.3,0.2,0.6,0.3,0.9c0.1,0.4,0.2,0.6,0.2,1c0.2,0.1,0.2,0.1,0.4,0.1c0,0.2,0,0.5,0,0.7
		c0.1,0,0.2,0,0.2,0c0.4,0.9,0.4,0.9,0.4,1.5c0.1,0,0.2,0,0.2,0c0.2,0.5,0.3,0.9,0.2,1.5c0.2,0.1,0.2,0.1,0.4,0.1c0,0.2,0,0.5,0,0.7
		c0.1,0,0.2,0,0.2,0c0,0.2,0,0.4,0,0.6c0.1,0,0.2,0,0.2,0c0.1,0.4,0.1,0.4,0.1,0.9c0.1,0,0.2,0,0.2,0c0,0.2,0,0.4,0,0.6
		c0.1,0,0.2,0,0.2,0c0.2,0.4,0.3,0.7,0.4,1.1c0.1,0,0.2,0,0.2,0c0,0.2,0,0.4,0,0.6c0.1,0,0.2,0,0.4,0c0,0.2,0,0.3,0,0.5
		c0.1,0,0.2,0,0.2,0c0,0.1,0,0.2,0,0.4c0.1,0,0.2,0,0.2,0c0.2,0.2,0.4,0.5,0.5,0.7c0.1,0.3,0.1,0.3,0.5,0.5c0,0.1,0,0.2,0,0.2
		c0.1,0,0.2,0,0.2,0c0,0.1,0,0.2,0,0.2c0.1,0,0.1,0,0.2,0c0.3,0.1,0.3,0.1,0.6,0.3c0,0.1,0,0.2,0,0.2c0.2,0,0.3,0,0.5,0
		c0,0.1,0,0.2,0,0.2c0.1,0,0.2,0,0.3,0c0.3,0,0.3,0,0.6,0.3c0.6,0.2,1.3,0.3,1.9,0.3c0.1,0,0.1,0,0.3,0c0.2,0,0.5,0,0.7,0
		c0-0.1,0-0.2,0-0.2c0.3,0,0.6,0,0.8,0c0-0.1,0.1-0.2,0.1-0.4c0.1,0,0.2,0,0.4,0c0-0.1,0-0.2,0-0.2c0.2,0,0.3,0,0.5,0
		c0-0.1,0-0.2,0-0.2c0.1,0,0.2,0,0.4,0c0-0.1,0-0.2,0-0.4c0.1,0,0.2,0,0.2,0c0-0.1,0-0.2,0-0.2c0.1,0,0.2,0,0.2,0
		c0.1-0.2,0.2-0.4,0.2-0.6c0.1,0,0.2,0,0.4,0c0.1-0.4,0.2-0.9,0.2-1.3c0.1,0,0.2,0,0.2,0c0-0.8,0-1.7,0-2.6c-0.1,0-0.2,0-0.2,0
		c0-0.2,0-0.4,0-0.6c-0.1,0-0.2,0-0.2,0c0-0.2,0-0.4,0-0.6c-0.1,0-0.2,0-0.2,0c0-0.1,0-0.2,0-0.4c-0.1,0-0.2,0-0.4,0
		c0-0.1,0-0.2,0-0.2c-0.1,0-0.2,0-0.2,0c0-0.1,0-0.2,0-0.2c-0.1,0-0.2,0-0.2,0c-0.2-0.2-0.2-0.2-0.4-0.4c0-0.1,0-0.2,0-0.2
		c-0.2,0-0.3,0-0.5,0c0-0.1-0.1-0.2-0.1-0.2c-0.1,0-0.2-0.1-0.4-0.1c0-0.1,0-0.2,0-0.2c-0.2,0-0.3,0-0.5,0c0-0.1,0-0.2,0-0.2
		c-0.2,0-0.3,0-0.5,0c0-0.1,0-0.2,0-0.2c-0.2,0-0.4-0.1-0.6-0.1c0-0.1,0-0.2,0-0.2c-0.2,0-0.4,0-0.6,0c0-0.1,0-0.2,0-0.4
		c-0.1,0-0.2,0-0.3,0c-0.4,0-0.7-0.1-1.1-0.3c0-0.1,0-0.2,0-0.2c-0.1,0-0.2,0-0.3,0c-0.3-0.1-0.6-0.2-0.9-0.3c0-0.1,0-0.2,0-0.2
		c-0.1,0-0.2,0-0.3,0c-0.3,0-0.3,0-0.5-0.2c-0.1-0.2-0.1-0.2-0.1-0.4c-0.2,0-0.3,0-0.5,0c0-0.1,0-0.2,0-0.2
		c-0.2-0.1-0.4-0.2-0.6-0.2c0-0.1,0-0.2,0-0.4c-0.1,0-0.2,0-0.4,0c0-0.1,0-0.2,0-0.4c-0.1,0-0.2-0.1-0.4-0.1
		c-0.4-0.5-0.5-0.9-0.5-1.6c-0.1,0-0.2,0-0.4,0c0-0.5,0-1,0-1.4c0-0.1,0-0.3,0-0.4c0-0.1,0-0.3,0-0.4c0-0.1,0-0.2,0-0.4
		c0-0.3,0-0.3,0.3-0.5c0.1-0.3,0.2-0.6,0.3-0.9c0.1-0.3,0.2-0.5,0.5-0.7c0.1,0,0.2,0,0.2,0c0-0.1,0.1-0.2,0.1-0.4
		c0.2-0.3,0.2-0.3,0.5-0.5c0.3,0,0.3,0,0.6,0c0-0.1,0-0.2,0-0.2c0.5-0.3,0.8-0.4,1.3-0.4c0-0.1,0.1-0.2,0.1-0.4
		C831.1,790,832,789.9,832.9,789.9z"/>
	<path class="st0" d="M800.3,789.8c0.1,0,0.2,0,0.4,0c0.3,0,0.3,0,0.4,0.1c0.3,0,0.6,0,0.9,0.1c0.2,0,0.3,0,0.5,0c0.2,0,0.2,0,0.4,0
		c0.1,0.2,0.1,0.2,0.1,0.4c0.3,0,0.6,0,0.8,0c0,0.1,0,0.2,0,0.2c0.2,0,0.4,0,0.6,0c0.1,0.2,0.1,0.2,0.1,0.4c0.2,0,0.4,0,0.6,0
		c0,0.1,0,0.2,0,0.2c0.1,0,0.1,0,0.2,0c0.3,0.1,0.5,0.2,0.8,0.3c0,0.1,0,0.2,0,0.2c0.2,0,0.3,0,0.5,0c0,0.1,0,0.2,0,0.2
		c0.1,0,0.2,0.1,0.4,0.1c0,0.1,0,0.2,0,0.2c0.1,0,0.1,0.1,0.2,0.1c0.3,0.1,0.3,0.1,0.6,0.4c0,0.1,0,0.2,0,0.4c0.1,0,0.2,0,0.4,0
		c0,0.1,0,0.2,0,0.2c0.1,0,0.2,0,0.2,0c0,0.1,0,0.2,0,0.4c0.1,0,0.1,0.1,0.2,0.1c0.3,0.2,0.4,0.3,0.6,0.6c0,0.1,0,0.2,0,0.4
		c0.1,0,0.2,0.1,0.4,0.1c0.2,0.4,0.2,0.6,0.2,1.1c0.1,0,0.2,0.1,0.4,0.1c0,0.2,0,0.5,0,0.7c0.1,0,0.2,0,0.2,0
		c0.2,0.6,0.3,1.2,0.3,1.8c0,0.1,0,0.2,0,0.3c0.1,0,0.2,0.1,0.2,0.1c0,1.3,0,2.6,0,4c-0.1,0-0.2,0-0.2,0c0,0.5-0.1,1-0.1,1.5
		c-0.1,0-0.2,0-0.2,0c0,0.3,0,0.6,0,0.9c-0.1,0-0.2,0-0.2,0c0,0.2,0,0.4,0,0.6c-0.1,0-0.2,0.1-0.2,0.1c-0.1,0.3-0.1,0.3-0.2,0.5
		c-0.1,0.3-0.1,0.3-0.2,0.5c-0.1,0-0.2,0.1-0.2,0.1c0,0.1,0,0.1,0,0.2c-0.1,0.4-0.4,0.6-0.7,0.9c-0.1,0.2-0.2,0.3-0.2,0.5
		c-0.2,0.2-0.2,0.2-0.4,0.4c-0.1,0-0.2,0-0.2,0c0,0.1,0,0.2,0,0.2c-0.1,0-0.2,0-0.2,0c0,0.1,0,0.2,0,0.2c-0.7,0.6-0.7,0.6-1.1,0.6
		c0,0.1-0.1,0.2-0.1,0.4c-0.1,0-0.2,0-0.4,0c0,0.1,0,0.2,0,0.2c-0.1,0-0.2,0-0.4,0c0,0.1,0,0.2,0,0.2c-0.1,0-0.2,0-0.2,0
		c-0.1,0-0.2,0-0.3,0.1c0,0.1-0.1,0.2-0.1,0.2c-0.5,0.2-0.8,0.3-1.3,0.2c0,0.1-0.1,0.2-0.1,0.4c-0.1,0-0.3,0-0.4,0.1
		c-0.4,0-0.4,0-0.6,0.2c-0.4,0-0.8,0.1-1.1,0.1c-0.2,0-0.2,0-0.3,0c-1.1,0-2.2,0-3.2-0.1c0-0.1,0-0.2,0-0.2c-0.4,0-0.7,0-1.1,0
		c0-0.1,0-0.2,0-0.4c-0.2,0-0.5,0-0.7,0c0-0.1,0-0.2,0-0.2c-0.2,0-0.4,0-0.6,0c0-0.1,0-0.2,0-0.2c-0.3-0.1-0.6-0.3-1-0.4
		c0-0.1,0-0.2,0-0.2c-0.2,0-0.3,0-0.5,0c0-0.1,0-0.2,0-0.4c-0.1,0-0.2,0-0.4,0c0-0.1,0-0.2,0-0.2c-0.1,0-0.2,0-0.4,0
		c0-0.1,0-0.2,0-0.4c-0.1,0-0.2,0-0.4,0c0-0.1,0-0.2,0-0.2c-0.1,0-0.2-0.1-0.2-0.1c-0.2-0.1-0.2-0.1-0.4-0.5c-0.1,0-0.2,0-0.2,0
		c0-0.1,0-0.2,0-0.2c-0.1,0-0.2,0-0.2,0c0-0.1,0-0.2,0-0.4c-0.1,0-0.2,0-0.2,0c-0.2-0.2-0.2-0.2-0.4-0.4c0-0.2,0-0.3,0-0.5
		c-0.1,0-0.2,0-0.2,0c0-0.2-0.1-0.4-0.1-0.6c-0.1,0-0.2,0-0.2,0c0-0.2,0-0.3,0-0.5c-0.1,0-0.2,0-0.2,0c0-0.2,0-0.4,0-0.6
		c-0.1,0-0.2,0-0.2,0c0-0.2,0-0.4,0-0.6c-0.1,0-0.2-0.1-0.4-0.1c0-0.3,0-0.6,0-1c-0.1,0-0.2,0-0.2,0c-0.7-1.4-0.4-4.2-0.1-5.7
		c0.1-0.1,0.1-0.1,0.1-0.2c0.1,0,0.2,0,0.2,0c0-0.3,0-0.6,0-0.9c0.1,0,0.2,0,0.4,0c0-0.2,0-0.2,0-0.3c0-0.4,0.1-0.7,0.3-1.1
		c0.1,0,0.2,0,0.2,0c0-0.2,0.1-0.4,0.1-0.6c0.1,0,0.2,0,0.2,0c0-0.2,0-0.3,0-0.5c0.1,0,0.2,0,0.2,0c0-0.1,0-0.2,0-0.2
		c0-0.1,0.1-0.2,0.1-0.3c0.1,0,0.2-0.1,0.2-0.1c0.1,0,0.2-0.1,0.2-0.1c0.1-0.3,0.1-0.3,0.1-0.6c0.1,0,0.2,0,0.2,0c0-0.1,0-0.2,0-0.2
		c0.1,0,0.2,0,0.2,0c0-0.1,0-0.2,0-0.2c0.4-0.3,0.7-0.5,1.1-0.6c0-0.1,0-0.2,0-0.4c0.1,0,0.2,0,0.4,0c0-0.1,0-0.2,0-0.2
		c0.2,0,0.3,0,0.5,0c0.1-0.2,0.1-0.2,0.1-0.4c0.1,0,0.2,0,0.4,0c0-0.1,0-0.2,0-0.2c0.2,0,0.3,0,0.5,0c0-0.1,0-0.2,0-0.2
		c0.1,0,0.2,0,0.2,0c0.1,0,0.2,0,0.2-0.1c0-0.1,0.1-0.2,0.1-0.2c0.2,0,0.5,0,0.7,0c0-0.1,0-0.2,0-0.2c0.3,0,0.6,0,0.8,0
		c0-0.1,0.1-0.2,0.1-0.4c0.1,0,0.2,0,0.4,0c0.2,0,0.3,0,0.5,0c0.2,0,0.3,0,0.5,0C799.3,789.9,799.8,789.8,800.3,789.8z M798.5,791.1
		c0,0.1,0,0.2,0,0.2c-0.3,0-0.6,0-1,0c0,0.1-0.1,0.2-0.1,0.2c-0.3,0.1-0.3,0.1-0.5,0.1c0,0.1,0,0.2,0,0.2c-0.2,0-0.3,0-0.5,0
		c0,0.1,0,0.2,0,0.2c-0.2,0-0.3,0.1-0.5,0.1c0,0.1,0,0.2,0,0.2c-0.2,0-0.3,0-0.5,0c0,0.1,0,0.2,0,0.2c-0.1,0-0.2,0-0.2,0
		c0,0.1,0,0.2,0,0.2c-0.1,0-0.2,0-0.2,0c-0.2,0.2-0.2,0.2-0.4,0.4c0,0.1,0,0.2,0,0.2c-0.1,0-0.2,0-0.2,0c-0.2,0.2-0.2,0.2-0.4,0.4
		c0,0.1,0,0.2,0,0.2c-0.1,0-0.2,0.1-0.2,0.1c0,0.2,0,0.3,0,0.5c-0.1,0-0.2,0-0.2,0c0,0.2,0,0.3,0,0.5c-0.1,0-0.2,0-0.2,0
		c0,0.2,0,0.4,0,0.6c-0.1,0-0.2,0-0.4,0c0,0.2,0,0.4,0,0.6c-0.1,0-0.2,0-0.2,0c0,0.3,0,0.6,0,0.9c-0.1,0-0.2,0-0.2,0
		c-0.3,1.2-0.4,2.3-0.4,3.5c0,0.3,0,0.6,0,0.9c0,1.2,0.1,2.2,0.4,3.4c0.1,0,0.2,0,0.2,0c0,0.2,0,0.2,0,0.3c0,0.4,0.1,0.7,0.3,1.1
		c0.1,0,0.2,0.1,0.2,0.1c0.1,0.3,0.1,0.3,0.1,0.5c0.1,0,0.2,0,0.2,0c0,0.2,0,0.4,0,0.6c0.1,0,0.2,0,0.2,0c0,0.1,0,0.2,0,0.2
		c0.1,0,0.2,0,0.2,0c0,0.2,0.1,0.4,0.1,0.6c0.1,0,0.2,0,0.2,0c0,0.1,0,0.2,0,0.2c0.1,0,0.2,0,0.2,0c0,0.1,0,0.2,0,0.4
		c0.1,0,0.2,0,0.4,0c0.1,0.2,0.2,0.3,0.2,0.5c0.1,0,0.2,0,0.2,0c0,0.1,0,0.2,0,0.4c0.3,0.2,0.5,0.2,0.9,0.2c0,0.1,0.1,0.2,0.1,0.4
		c0.2,0,0.3,0,0.5,0c0,0.1,0,0.2,0,0.2c0.4,0.2,0.7,0.2,1.1,0.3c0.4,0.1,0.4,0.1,0.6,0.3c0.3,0,0.3,0,0.7,0c0.1,0,0.3,0,0.4,0
		c0.1,0,0.3,0,0.4,0c0.2,0,0.3,0,0.5,0c0.4,0,0.7,0,1.1,0c0-0.1,0.1-0.2,0.1-0.2c0.3,0,0.6-0.1,0.8-0.1c0-0.1,0-0.2,0-0.2
		c0.1,0,0.2,0,0.3-0.1c0.3-0.1,0.5-0.1,0.8-0.2c0-0.1,0-0.2,0-0.4c0.1,0,0.1,0,0.2,0c0.3-0.1,0.5-0.2,0.7-0.4
		c0.1-0.1,0.1-0.1,0.2-0.2c0.2-0.2,0.2-0.2,0.2-0.4c0.1,0,0.2,0,0.2,0c0.2-0.2,0.2-0.2,0.4-0.4c0-0.1,0-0.2,0-0.2c0.1,0,0.2,0,0.2,0
		c0-0.1,0-0.2,0-0.2c0.1,0,0.2,0,0.2,0c0-0.1,0-0.2,0-0.4c0.1,0,0.2,0,0.2,0c0.1-0.2,0.2-0.3,0.2-0.5c0,0,0.1,0,0.1,0
		c0.2-0.4,0.2-0.7,0.2-1.2c0.1,0,0.2,0,0.2,0c0-0.2,0-0.2,0-0.4c0-0.1,0-0.2,0.1-0.4c0.1,0,0.2-0.1,0.2-0.1c0-0.3,0-0.6,0-0.9
		c0.1,0,0.2,0,0.2,0c0-0.6,0-1.1,0-1.7c0.1,0,0.2,0,0.2,0c0.1-0.6,0.1-1.1,0.1-1.7c0-0.1,0-0.2,0-0.3c0-0.7,0-1.3-0.1-1.9
		c0,0-0.1,0-0.1,0c0-0.1,0-0.1,0-0.2c-0.1-0.8-0.3-1.5-0.7-2.3c-0.2-0.5-0.4-1-0.5-1.5c-0.1,0-0.2,0-0.4,0c0-0.1,0-0.1-0.1-0.3
		c-0.1-0.3-0.1-0.3-0.2-0.6c-0.1,0-0.2,0-0.2,0c0-0.2-0.1-0.4-0.1-0.6c-0.1,0-0.2,0-0.2,0c0-0.1,0-0.2,0-0.2c-0.1,0-0.2,0-0.2,0
		c0-0.1,0-0.2,0-0.2c-0.1,0-0.2,0-0.2,0c0-0.1,0-0.2,0-0.4c-0.1,0-0.2,0-0.4,0c0-0.1,0-0.2,0-0.2c-0.1,0-0.2-0.1-0.4-0.1
		c-0.1-0.1-0.1-0.1-0.1-0.2c-0.1,0-0.2,0-0.4,0c0-0.1,0-0.2,0-0.2c-0.2,0-0.3,0-0.5,0c0-0.1,0-0.2,0-0.2c-0.6-0.3-0.9-0.4-1.6-0.4
		c0-0.1,0-0.2,0-0.2C800.8,791.1,799.7,791.1,798.5,791.1z"/>
	<path class="st0" d="M859.5,790.2c0,0.2,0,0.4,0,0.6c-0.1,0-0.2,0-0.2,0c0,0.1,0,0.2,0,0.4c-1.1,0-2.2,0-3.3,0c0,0.1,0,0.2,0,0.2
		c-0.3,0-0.6,0-1,0c0,0.1-0.1,0.2-0.1,0.4c-0.1,0-0.2,0-0.4,0c0,0.1,0,0.2,0,0.2c-0.2,0-0.3,0-0.5,0c0,0.1-0.1,0.1-0.1,0.2
		c-0.1,0.3-0.1,0.3-0.3,0.5c-0.2,0.2-0.2,0.4-0.3,0.7c-0.1,0-0.2,0-0.2,0c0,0.8,0,1.6,0,2.4c0.1,0,0.2,0,0.2,0c0,0.1,0,0.2,0,0.4
		c0.1,0,0.2,0.1,0.2,0.1c0.3,0.1,0.3,0.1,0.4,0.5c0.3,0.1,0.3,0.1,0.6,0.2c0,0.1,0,0.2,0,0.2c0.3,0.2,0.6,0.3,0.9,0.4
		c0.4,0.2,0.4,0.2,0.5,0.4c0.2,0.1,0.2,0.1,0.5,0.1c0,0.1,0,0.2,0,0.2c0.2,0,0.5,0,0.7,0c0,0.1,0,0.2,0,0.2c0.1,0,0.2,0,0.3,0
		c0.3,0.1,0.6,0.2,0.9,0.3c0,0.1,0,0.2,0,0.2c0.2,0,0.4,0,0.6,0c0,0.1,0.1,0.2,0.1,0.2c0.2,0.1,0.2,0.1,0.5,0.1c0,0.1,0,0.2,0,0.2
		c0.2,0,0.4,0,0.6,0c0,0.1,0.1,0.2,0.1,0.2c0.2,0.1,0.2,0.1,0.5,0.2c0.1,0,0.2,0.1,0.3,0.1c0.1,0,0.1,0,0.2,0.1c0,0.1,0,0.2,0,0.2
		c0.2,0.1,0.2,0.1,0.5,0.1c0,0.1,0,0.2,0,0.2c0.2,0,0.2,0,0.3,0.1c0.4,0.1,0.5,0.2,0.8,0.5c0,0.1,0,0.2,0,0.2c0.1,0,0.2,0,0.4,0
		c0,0.1,0,0.2,0,0.2c0.1,0,0.2,0,0.2,0c0,0.1,0,0.2,0,0.4c0.1,0,0.2,0.1,0.2,0.1c0.3,0.2,0.3,0.2,0.3,0.5c0,0.1,0,0.2,0,0.3
		c0.2,0.1,0.2,0.1,0.4,0.1c0,0.2,0,0.4,0,0.6c0.1,0,0.2,0,0.2,0c0.3,0.7,0.3,1.2,0.3,1.9c0,0.2,0,0.2,0,0.3c0,0.6-0.1,1.2-0.3,1.8
		c-0.1,0-0.2,0-0.2,0c0,0.2,0,0.4,0,0.6c-0.1,0-0.2,0.1-0.2,0.1c-0.1,0.2-0.1,0.2-0.1,0.5c-0.1,0-0.2,0-0.2,0
		c-0.1,0.3-0.3,0.5-0.4,0.9c-0.2,0.1-0.5,0.2-0.7,0.2c0,0.1-0.1,0.2-0.1,0.4c-0.1,0-0.2,0-0.4,0c0,0.1,0,0.2,0,0.2
		c-0.5,0.4-0.5,0.4-0.8,0.4c0,0.1,0,0.2,0,0.2c-0.2,0-0.4,0-0.6,0c0,0.1,0,0.2,0,0.2c-0.2,0-0.4,0-0.6,0c0,0.1-0.1,0.2-0.1,0.4
		c-0.1,0-0.3,0-0.4,0.1c-0.4,0-0.4,0-0.6,0.2c-0.3,0-0.5,0-0.8,0.1c-0.6,0-0.6,0-1.2,0.1c-0.3,0-0.3,0-0.5-0.1c-0.2,0-0.3,0-0.5,0
		c-0.1,0-0.1,0-0.3,0c-0.2,0-0.4,0-0.6,0c-0.8,0-0.8,0-0.9-0.2c-0.3,0-0.6-0.1-0.8-0.1c0-0.1-0.1-0.2-0.1-0.4c-0.2,0-0.5,0-0.7,0
		c0-0.1,0-0.2,0-0.2c-0.1,0-0.2,0-0.3,0c-0.3,0-0.3,0-0.6-0.3c-0.1,0-0.2-0.1-0.4-0.1c0-0.1,0-0.2,0-0.2c-0.1,0-0.2,0-0.4,0
		c0-0.1,0-0.2,0-0.2c-0.1,0-0.2,0-0.2,0c0-0.1,0-0.2,0-0.4c0-0.2,0-0.2,0-0.5c0-0.2,0-0.3,0-0.5c0-0.1,0-0.3,0-0.4
		c-0.1,0-0.2-0.1-0.2-0.1c0-0.4,0-0.7,0-1.1c0.2,0,0.3-0.1,0.5-0.1c0.3,0.2,0.3,0.2,0.5,0.5c0,0.1,0,0.2,0,0.4c0.1,0,0.2,0,0.2,0
		c0,0.1,0,0.2,0,0.2c0.1,0,0.2,0,0.2,0c0,0.1,0,0.2,0,0.4c0.1,0,0.2,0.1,0.4,0.1c0.2,0.2,0.3,0.4,0.5,0.6c0.1,0,0.2,0.1,0.2,0.1
		c0,0.1,0,0.2,0,0.2c0.1,0,0.2,0,0.4,0c0,0.1,0,0.2,0,0.4c0.2,0,0.3,0,0.5,0c0,0.1,0,0.2,0,0.2c0.2,0,0.4,0,0.6,0c0,0.1,0,0.2,0,0.2
		c0.3,0,0.6,0,1,0c0,0.1,0.1,0.2,0.1,0.4c0.5,0,1,0,1.5,0c0.2,0,0.2,0,0.4,0c0.1,0,0.3,0,0.4,0c0.1,0,0.3,0,0.4,0
		c0.3,0,0.3,0,0.5-0.3c0.4,0,0.4,0,0.7,0c0-0.1,0-0.2,0-0.2c0.4-0.1,0.4-0.1,0.9-0.2c0-0.1,0-0.2,0-0.4c0.1,0,0.2,0,0.4,0
		c0-0.1,0-0.2,0-0.2c0.1,0,0.2,0,0.2,0c0-0.1,0-0.2,0-0.2c0.1,0,0.2,0,0.2,0c0-0.1,0.1-0.2,0.1-0.4c0.1,0,0.2,0,0.2,0
		c0.1-0.3,0.2-0.6,0.2-0.9c0.1,0,0.2,0,0.2,0c0-0.3,0-0.6,0-0.8c0.1,0,0.2,0,0.2,0c0-0.6,0-1.1,0-1.7c-0.1,0-0.2,0-0.2,0
		c0-0.3,0-0.6,0-0.9c-0.1,0-0.2,0-0.2,0c-0.2-0.5-0.4-0.7-0.4-1.2c-0.1,0-0.2,0-0.2,0c0-0.1,0-0.2,0-0.2c-0.1,0-0.2,0-0.2,0
		c0-0.1,0-0.2,0-0.2c-0.1,0-0.2,0-0.4,0c0-0.1-0.1-0.2-0.1-0.2c-0.2-0.1-0.2-0.1-0.4-0.1c0-0.1,0-0.2,0-0.2c-0.1,0-0.2,0-0.4,0
		c0-0.1-0.1-0.2-0.1-0.2c-0.2-0.1-0.2-0.1-0.5-0.2c-0.1,0-0.2-0.1-0.3-0.1c-0.1,0-0.1,0-0.2-0.1c0-0.1,0-0.2,0-0.2
		c-0.1,0-0.1,0-0.2,0c-0.3-0.1-0.6-0.2-0.9-0.3c0-0.1,0-0.2,0-0.2c-0.2,0-0.4,0-0.6,0c0-0.1-0.1-0.2-0.1-0.2
		c-0.2-0.1-0.2-0.1-0.5-0.1c0-0.1,0-0.2,0-0.2c-0.1,0-0.2,0-0.3,0c-0.4,0-0.6-0.2-0.9-0.4c-0.2-0.1-0.4-0.2-0.6-0.2
		c0-0.1,0-0.2,0-0.2c-0.2,0-0.3,0-0.5,0c-0.1-0.1-0.1-0.1-0.1-0.2c-0.3-0.1-0.6-0.2-0.8-0.4c0-0.1,0-0.2,0-0.2c-0.1,0-0.2,0-0.4,0
		c0-0.1,0-0.2,0-0.2c-0.2,0-0.3-0.1-0.5-0.1c0-0.1,0-0.2,0-0.2c-0.1,0-0.2,0-0.2,0c-0.1-0.3-0.1-0.3-0.1-0.6c-0.1,0-0.2,0-0.2,0
		c-0.2-0.2-0.2-0.2-0.4-0.4c0-0.2,0-0.3,0-0.5c-0.1,0-0.2,0-0.2,0c0-0.1,0-0.3-0.1-0.4c0-0.4,0-0.4-0.2-0.6c0-0.3,0-0.6,0-1
		c0-0.1,0-0.2,0-0.3c0-0.7,0-0.7,0.1-0.8c0-0.2,0-0.3,0.1-0.5c0-0.4,0.1-0.8,0.3-1.2c0.1,0,0.2,0,0.4,0c0-0.1-0.1-0.2-0.1-0.4
		c0.2-0.1,0.3-0.3,0.5-0.4c0.1-0.1,0.2-0.2,0.3-0.2c0.2-0.2,0.2-0.2,0.5-0.2c0-0.1,0-0.2,0-0.2c0.2,0,0.4,0,0.6,0
		c0-0.1,0.1-0.2,0.1-0.4c0.2,0,0.3,0,0.5,0c0-0.1,0-0.2,0-0.2c0.2,0,0.5,0,0.7,0c0-0.1,0.1-0.2,0.1-0.4c0.1,0,0.1,0,0.3,0
		c0.2,0,0.2,0,0.4,0c0.1,0,0.2,0,0.4,0C857.2,789.8,858.2,789.9,859.5,790.2z"/>
	<path class="st0" d="M846.4,790.3c0,7.3,0,14.6,0,22.1c-1.1,0.1-1.1,0.1-1.7,0.1c-0.1,0-0.2,0-0.3,0c-0.3,0-0.3,0-0.4-0.2
		c0-0.3,0-0.6,0-0.8c0-0.1,0-0.2,0-0.3c0-0.3,0-0.6,0-0.9c0-0.2,0-0.4,0-0.6c0-0.6,0-1.2,0-1.8c0-0.6,0-1.2,0-1.8c0-1.2,0-2.3,0-3.5
		c0-1.3,0-2.6,0-4c0-2.7,0-5.4,0-8.2c0.2,0,0.3,0,0.5,0c0-0.1,0-0.2,0-0.2c0.2,0,0.4-0.1,0.6-0.1c0.2,0,0.2,0,0.3,0
		C845.7,790,845.7,790,846.4,790.3z"/>
	<path class="st0" d="M815,806.5c1,0,1.9,0,2.9,0c0,0.1,0,0.2,0,0.2c0.4,0,0.7,0,1.1,0c0,0.1,0,0.2,0,0.2c0.2,0,0.5,0,0.7,0
		c0.1,0.2,0.1,0.2,0.1,0.4c0.1,0,0.2,0,0.3,0.1c0.2,0,0.2,0,0.3,0.1c0.1,0,0.2,0,0.3,0.1c0.1,0,0.1,0,0.2,0.1
		c0.1,0.1,0.1,0.1,0.1,0.2c0.1,0,0.2,0.1,0.4,0.1c0,0.1,0,0.2,0,0.2c0.1,0,0.1,0,0.2,0c0.3,0.1,0.3,0.1,0.6,0.3c0,0.1,0,0.2,0,0.2
		c0.1,0,0.2,0,0.4,0c0,0.1,0,0.2,0,0.2c0.2,0,0.3,0,0.5,0c0,0.1,0,0.2,0,0.4c0.1,0,0.2,0,0.2,0c0,0.1,0,0.2,0,0.2
		c0.1,0,0.2,0.1,0.4,0.1c0.1,0,0.2,0.1,0.4,0.1c0.1,0.2,0.1,0.2,0.1,0.4c0.1,0,0.2,0,0.4,0c0,0.1,0,0.2,0,0.2c0.1,0,0.2,0,0.2,0
		c0,0.1,0.1,0.2,0.1,0.2c0.2,0.1,0.2,0.1,0.4,0.1c0,0.1,0,0.2,0,0.2c0.1,0,0.2,0,0.4,0c0,0.1,0,0.2,0,0.2c0.1,0,0.2,0,0.4,0
		c0,0.1,0.1,0.2,0.1,0.2c0.2,0.1,0.2,0.1,0.4,0.1c0,0.1,0,0.2,0,0.2c0.2,0,0.4,0,0.6,0c0,0.1,0,0.2,0,0.4c0.2,0,0.4,0,0.6,0
		c0,0.1,0,0.2,0,0.2c0.2,0,0.5,0,0.7,0c0,0.1,0,0.2,0,0.2c0.2,0,0.5,0,0.7,0c0,0.1,0.1,0.2,0.1,0.4c1.2,0,2.5,0,3.8,0
		c0.1,0.4,0.1,0.4,0.2,0.7c-0.2,0.2-0.4,0.1-0.6,0.1c-0.1,0-0.2,0-0.3,0c-0.1,0-0.2,0-0.4,0c-0.1,0-0.2,0-0.4,0c-0.3,0-0.5,0-0.8,0
		c-0.4,0-0.8,0-1.2,0c-0.2,0-0.5,0-0.7,0c-0.1,0-0.2,0-0.3,0c-0.6,0-1.1,0-1.6-0.3c0-0.1,0-0.2,0-0.2c-0.2,0-0.5,0-0.7,0
		c0-0.1,0-0.2,0-0.2c-0.1,0-0.2,0-0.3,0c-0.4,0-0.7-0.2-1.1-0.4c0-0.1,0-0.2,0-0.2c-0.1,0-0.2,0-0.3-0.1c-0.3-0.1-0.3-0.1-0.7-0.2
		c0-0.1,0-0.2,0-0.4c-0.2,0-0.3,0-0.5,0c0-0.1,0-0.2,0-0.2c-0.1,0-0.2,0-0.4,0c0-0.1-0.1-0.2-0.1-0.2c-0.2-0.1-0.4-0.3-0.7-0.4
		c-0.1-0.1-0.2-0.1-0.4-0.2c-0.1,0-0.2-0.1-0.3-0.2c0-0.1,0-0.2,0-0.2c-0.1,0-0.2,0-0.4,0c0-0.1,0-0.2,0-0.2c-0.2,0-0.3-0.1-0.5-0.1
		c0-0.1,0-0.2,0-0.2c-0.1,0-0.2,0-0.2,0c0-0.1,0-0.2,0-0.2c-0.2,0-0.3,0-0.5,0c0-0.1,0-0.2,0-0.2c-0.2,0-0.3-0.1-0.5-0.1
		c0-0.1,0-0.2,0-0.2c-0.2,0-0.3,0-0.5,0c0-0.1,0-0.2,0-0.2c-0.2,0-0.3,0-0.5,0c0-0.1,0-0.2,0-0.4c-0.2,0-0.3,0-0.5,0
		c0-0.1,0-0.2,0-0.2c-0.2,0-0.3,0-0.5,0c0-0.1,0-0.2,0-0.2c-0.2,0-0.4,0-0.6,0c0-0.1-0.1-0.2-0.1-0.4c-0.4,0-0.7,0-1.1,0
		c0-0.1,0-0.2,0-0.2c-0.2,0-0.2,0-0.4,0c-0.4,0-0.4,0-0.6-0.1C814.9,807,815,806.7,815,806.5z"/>
	<path class="st0" d="M825.7,780.1c0.2,0,0.2,0,0.3,0c0.3,0,0.3,0,0.4,0.1c0,0.3,0,0.7,0,1c0,0.1,0,0.2,0,0.3c0,0.2,0,0.5,0,0.7
		c0.4,0,0.9,0.1,1.3,0.1c0-0.1,0-0.3,0-0.4c0-0.2,0-0.4,0-0.5c0-0.1,0-0.2,0-0.3c0-0.7,0-0.7,0.1-1c0.4,0,0.8,0,1.2,0
		c0,1.8,0,3.6,0,5.5c-0.3,0.2-0.6,0.1-1,0.1c-0.1,0-0.2-0.1-0.2-0.1c0-0.1,0-0.2,0-0.4c-0.1,0-0.2,0-0.2,0c0-0.7,0-0.7,0-1
		c0,0,0.1-0.1,0.1-0.1c0-0.3,0.1-0.6,0.1-0.9c-0.5,0-1,0-1.6,0c0,0.2,0,0.4,0,0.6c0.1,0,0.2,0,0.2,0c0,0.5,0,1,0,1.6
		c-0.5,0.2-0.5,0.2-1.6,0.1c0-1.8,0-3.5,0-5.3C825.2,780,825.4,780.1,825.7,780.1z M827.6,784.2c0.1,0.5,0.1,0.5,0.1,0.5
		L827.6,784.2z"/>
	<path class="st0" d="M830.1,780.1c0.8,0,0.8,0,1.6,0c0.2,0,0.3,0,0.5,0c0.1,0,0.3,0,0.4,0c0.1,0,0.3,0,0.4,0c0.4,0,0.6,0.1,1,0.4
		c0,0.1,0,0.2,0,0.4c-0.8,0.3-1.5,0.4-2.3,0.4c0,0.4,0,0.7,0,1.1c0.7,0,1.4,0,2.1,0c0,0.3,0,0.6,0,1c-0.7,0-1.4,0-2.1,0
		c0,0.4,0,0.9,0,1.3c0.6,0,1.3,0,1.9,0c0,0.1,0,0.2,0,0.4c0.1,0,0.2,0,0.4,0c0,0.3,0,0.3-0.1,0.6c-0.3,0.2-0.6,0.1-1,0.1
		c-0.2,0-0.2,0-0.4,0c-0.2,0-0.3,0-0.5,0c-0.2,0-0.3,0-0.5,0c-0.1,0-0.3,0-0.4,0c-0.1,0-0.3,0-0.4,0c-0.3,0-0.3,0-0.6-0.1
		C830.1,783.7,830.1,781.9,830.1,780.1z"/>
	<path class="st0" d="M823.3,780.1c0.2,0,0.2,0,0.4,0c0.3,0,0.6,0,0.9,0c0,0.2,0.1,0.5,0.1,0.7c-0.2,0.2-0.4,0.2-0.7,0.2
		c-0.3,0.1-0.5,0.1-0.8,0.2c0,1.4,0,2.8,0,4.3c-0.5,0.3-0.7,0.3-1.2,0.1c-0.1-0.1-0.1-0.1-0.1-0.5c0-0.2,0-0.4,0-0.6
		c0-0.1,0-0.2,0-0.3c0-0.3,0-0.6,0-0.9c0-0.2,0-0.4,0-0.6c0-0.5,0-1,0-1.5c-0.1,0-0.2,0-0.3,0c-0.1,0-0.2,0-0.4,0
		c-0.1,0-0.2,0-0.4,0c-0.3,0-0.3,0-0.4-0.1c0-0.4,0-0.4,0-0.7C821,779.8,822.6,780.1,823.3,780.1z"/>
	<path class="st0" d="M827.5,781.4c0,0,0.1,0,0.1,0c0,0.2,0,0.4,0,0.6c0,0-0.1,0-0.1,0C827.5,781.8,827.5,781.6,827.5,781.4z"/>
</g>
</svg>
